<svg xmlns="http://www.w3.org/2000/svg" width="691.427" height="450" viewBox="0 0 518.57 337.5" class="displayed_equation">
  <defs>
    <clipPath id="svg249136768743tikz_00001a">
      <path d="M 99 15.726563 L 186 15.726563 L 186 102 L 99 102 Z M 99 15.726563" />
    </clipPath>
    <clipPath id="svg249136768743tikz_00001b">
      <path d="M 21 24 L 502.84375 24 L 502.84375 320 L 21 320 Z M 21 24" />
    </clipPath>
    <clipPath id="svg249136768743tikz_00001c">
      <path d="M 15.734375 17 L 502.84375 17 L 502.84375 321.765625 L 15.734375 321.765625 Z M 15.734375 17" />
    </clipPath>
    <clipPath id="svg249136768743tikz_00001d">
      <path d="M 16 16 L 502.84375 16 L 502.84375 312 L 16 312 Z M 16 16" />
    </clipPath>
    <clipPath id="svg249136768743tikz_00001e">
      <path d="M 15.734375 15.726563 L 502.84375 15.726563 L 502.84375 319 L 15.734375 319 Z M 15.734375 15.726563" />
    </clipPath>
    <clipPath id="svg249136768743tikz_00001f">
      <path d="M 76 15.726563 L 100 15.726563 L 100 76 L 76 76 Z M 76 15.726563" />
    </clipPath>
    <clipPath id="svg249136768743tikz_00001g">
      <path d="M 115 15.726563 L 139 15.726563 L 139 75 L 115 75 Z M 115 15.726563" />
    </clipPath>
    <clipPath id="svg249136768743tikz_00001h">
      <path d="M 174 155 L 432 155 L 432 321.765625 L 174 321.765625 Z M 174 155" />
    </clipPath>
    <clipPath id="svg249136768743tikz_00001i">
      <path d="M 166 148 L 440 148 L 440 321.765625 L 166 321.765625 Z M 166 148" />
    </clipPath>
    <clipPath id="svg249136768743tikz_00001j">
      <path d="M 166 142 L 440 142 L 440 321.765625 L 166 321.765625 Z M 166 142" />
    </clipPath>
  </defs>
  <path d="M 163.304688 81.15625 L 126.070313 81.210938 L 126.0625 72.804688 C 126.0625 72.804688 125.671875 67.761719 130.921875 67.753906 L 130.863281 23.203125 C 130.863281 23.203125 107.132813 35.84375 107.171875 63.160156 L 107.214844 94.105469 L 178.027344 94.007813 Z M 163.304688 81.15625" fill="#898989" />
  <g clip-path="url(#svg249136768743tikz_00001a)">
    <path d="M 1633.046875 2563.4375 L 1260.703125 2562.890625 L 1260.625 2646.953125 C 1260.625 2646.953125 1256.71875 2697.382813 1309.21875 2697.460938 L 1308.632813 3142.96875 C 1308.632813 3142.96875 1071.328125 3016.5625 1071.71875 2743.398438 L 1072.148438 2433.945313 L 1780.273438 2434.921875 Z M 1633.046875 2563.4375" transform="matrix(.1 0 0 -.1 0 337.5)" fill="none" stroke-width="5.099" stroke="#000" stroke-miterlimit="10" />
  </g>
  <g clip-path="url(#svg249136768743tikz_00001b)">
    <path d="M 110.738281 92.617188 C 110.738281 92.617188 117.167969 46.9375 88.785156 24.46875 C 88.796875 33.992188 88.855469 75.757813 88.855469 75.757813 L 39.296875 75.828125 C 30.207031 75.839844 23.597656 80.390625 23.300781 88.835938 C 23.300781 88.835938 18.878906 162.980469 24.140625 198.589844 C 37.273438 275.015625 42.96875 310.625 72.722656 319.203125 L 72.492188 150.382813 C 72.492188 150.382813 72.484375 145.519531 92.273438 145.492188 L 502.425781 145.492188 L 502.425781 91.566406 Z M 110.738281 92.617188" fill="#8c8c8c" />
  </g>
  <g clip-path="url(#svg249136768743tikz_00001c)">
    <path d="M 1107.382813 2448.828125 C 1107.382813 2448.828125 1171.679688 2905.625 887.851563 3130.3125 C 887.96875 3035.078125 888.554688 2617.421875 888.554688 2617.421875 L 392.96875 2616.71875 C 302.070313 2616.601563 235.976563 2571.09375 233.007813 2486.640625 C 233.007813 2486.640625 188.789063 1745.195313 241.40625 1389.101563 C 372.734375 624.84375 429.6875 268.75 727.226563 182.96875 L 724.921875 1871.171875 C 724.921875 1871.171875 724.84375 1919.804688 922.734375 1920.078125 L 5024.257813 1920.078125 L 5024.257813 2459.335938 Z M 1107.382813 2448.828125" transform="matrix(.1 0 0 -.1 0 337.5)" fill="none" stroke-width="5.099" stroke="#000" stroke-miterlimit="10" />
  </g>
  <g clip-path="url(#svg249136768743tikz_00001d)">
    <path d="M 105.328125 84.65625 C 105.328125 84.65625 111.757813 38.972656 83.375 16.503906 C 83.390625 26.027344 83.445313 67.796875 83.445313 67.796875 L 33.886719 67.863281 C 24.796875 67.875 18.1875 72.429688 17.886719 80.871094 C 17.886719 80.871094 13.46875 155.019531 18.730469 190.628906 C 31.863281 267.054688 37.558594 302.664063 67.3125 311.238281 L 67.082031 142.417969 C 67.082031 142.417969 67.074219 137.769531 86.859375 137.742188 L 502.425781 137.742188 L 502.425781 83.605469 Z M 105.328125 84.65625" fill="#ccc" />
  </g>
  <g clip-path="url(#svg249136768743tikz_00001e)">
    <path d="M 1053.28125 2528.4375 C 1053.28125 2528.4375 1117.578125 2985.273438 833.75 3209.960938 C 833.90625 3114.726563 834.453125 2697.03125 834.453125 2697.03125 L 338.867188 2696.367188 C 247.96875 2696.25 181.875 2650.703125 178.867188 2566.289063 C 178.867188 2566.289063 134.6875 1824.804688 187.304688 1468.710938 C 318.632813 704.453125 375.585938 348.359375 673.125 262.617188 L 670.820313 1950.820313 C 670.820313 1950.820313 670.742188 1997.304688 868.59375 1997.578125 L 5024.257813 1997.578125 L 5024.257813 2538.945313 Z M 1053.28125 2528.4375" transform="matrix(.1 0 0 -.1 0 337.5)" fill="none" stroke-width="5.099" stroke="#000" stroke-miterlimit="10" />
  </g>
  <path d="M 83.375 16.503906 C 83.375 16.503906 92.394531 28.746094 92.433594 57.660156 C 92.445313 67.363281 92.238281 67.785156 90.171875 67.789063 C 88.109375 67.789063 83.445313 67.796875 83.445313 67.796875 Z M 83.375 16.503906" fill="#494949" />
  <g clip-path="url(#svg249136768743tikz_00001f)">
    <path d="M 833.75 3209.960938 C 833.75 3209.960938 923.945313 3087.539063 924.335938 2798.398438 C 924.453125 2701.367188 922.382813 2697.148438 901.71875 2697.109375 C 881.09375 2697.109375 834.453125 2697.03125 834.453125 2697.03125 Z M 833.75 3209.960938" transform="matrix(.1 0 0 -.1 0 337.5)" fill="none" stroke-width="5.099" stroke="#000" stroke-miterlimit="10" />
  </g>
  <path d="M 130.863281 23.203125 C 130.863281 23.203125 122.332031 31.75 122.347656 42.097656 C 122.359375 52.445313 122.378906 64.902344 122.378906 64.902344 C 122.378906 64.902344 122.476563 67.765625 130.921875 67.753906 Z M 130.863281 23.203125" fill="#494949" />
  <g clip-path="url(#svg249136768743tikz_00001g)">
    <path d="M 1308.632813 3142.96875 C 1308.632813 3142.96875 1223.320313 3057.5 1223.476563 2954.023438 C 1223.59375 2850.546875 1223.789063 2725.976563 1223.789063 2725.976563 C 1223.789063 2725.976563 1224.765625 2697.34375 1309.21875 2697.460938 Z M 1308.632813 3142.96875" transform="matrix(.1 0 0 -.1 0 337.5)" fill="none" stroke-width="5.099" stroke="#000" stroke-miterlimit="10" />
  </g>
  <path d="M 1587.109375 2410.664063 L 3427.890625 2410.664063 L 3427.890625 2566.523438 L 1587.109375 2566.523438 Z M 1587.109375 2410.664063" transform="matrix(.1 0 0 -.1 0 337.5)" fill="#fff" stroke-width="5.099" stroke="#000" stroke-miterlimit="10" />
  <path d="M 1587.109375 2566.523438 L 3427.890625 2566.523438 L 3427.890625 2722.34375 L 1587.109375 2722.34375 Z M 1587.109375 2566.523438" transform="matrix(.1 0 0 -.1 0 337.5)" fill="#ccc" stroke-width="5.099" stroke="#000" stroke-miterlimit="10" />
  <path d="M844.492188 1995.078125L844.492188 2135.859375M896.914063 1995.078125L896.914063 2135.859375M949.335938 1995.078125L949.335938 2135.859375M1001.71875 1995.078125L1001.71875 2135.859375M1106.5625 1995.078125L1106.5625 2135.859375M1158.984375 1995.078125L1158.984375 2135.859375M1211.40625 1995.078125L1211.40625 2135.859375M1263.828125 1995.078125L1263.828125 2135.859375M1054.140625 1995.078125L1054.140625 2181.484375M792.070313 1992.773438L792.070313 2234.960938M1368.632813 1995.078125L1368.632813 2135.859375M1421.054688 1995.078125L1421.054688 2135.859375M1473.4375 1995.078125L1473.4375 2135.859375M1525.898438 1995.078125L1525.898438 2135.859375M1630.703125 1995.078125L1630.703125 2135.859375M1683.125 1995.078125L1683.125 2135.859375M1735.546875 1995.078125L1735.546875 2135.859375M1787.929688 1995.078125L1787.929688 2135.859375M1578.28125 1995.078125L1578.28125 2181.484375M1316.210938 1996.796875L1316.210938 2234.960938M1892.773438 1995.078125L1892.773438 2135.859375M1945.195313 1995.078125L1945.195313 2135.859375M1997.617188 1995.078125L1997.617188 2135.859375M2050 1995.078125L2050 2135.859375M2154.84375 1995.078125L2154.84375 2135.859375M2207.265625 1995.078125L2207.265625 2135.859375M2259.648438 1995.078125L2259.648438 2135.859375M2312.070313 1995.078125L2312.070313 2135.859375M2102.421875 1995.078125L2102.421875 2181.484375M1840.351563 1992.773438L1840.351563 2234.960938M2416.914063 1995.078125L2416.914063 2135.859375M2469.335938 1995.078125L2469.335938 2135.859375M2521.71875 1995.078125L2521.71875 2135.859375M2574.140625 1995.078125L2574.140625 2135.859375M2678.984375 1995.078125L2678.984375 2135.859375M2731.40625 1995.078125L2731.40625 2135.859375M2783.828125 1995.078125L2783.828125 2135.859375M2836.210938 1995.078125L2836.210938 2135.859375M2626.5625 1995.078125L2626.5625 2181.484375M2364.492188 1992.773438L2364.492188 2234.960938M2941.054688 1995.078125L2941.054688 2135.859375M2993.4375 1995.078125L2993.4375 2135.859375M3045.898438 1995.078125L3045.898438 2135.859375M3098.28125 1995.078125L3098.28125 2135.859375M3203.125 1995.078125L3203.125 2135.859375M3255.507813 1995.078125L3255.507813 2135.859375M3307.929688 1995.078125L3307.929688 2135.859375M3360.351563 1995.078125L3360.351563 2135.859375M3150.703125 1995.078125L3150.703125 2181.484375M2888.632813 1992.773438L2888.632813 2234.960938M3465.195313 1995.078125L3465.195313 2135.859375M3517.617188 1995.078125L3517.617188 2135.859375M3570 1995.078125L3570 2135.859375M3622.421875 1995.078125L3622.421875 2135.859375M3727.265625 1995.078125L3727.265625 2135.859375M3779.648438 1995.078125L3779.648438 2135.859375M3832.070313 1995.078125L3832.070313 2135.859375M3884.492188 1995.078125L3884.492188 2135.859375M3674.84375 1995.078125L3674.84375 2181.484375M3412.773438 1992.773438L3412.773438 2234.960938M3989.335938 1995.078125L3989.335938 2135.859375M4041.71875 1995.078125L4041.71875 2135.859375M4094.140625 1995.078125L4094.140625 2135.859375M4146.5625 1995.078125L4146.5625 2135.859375M4251.40625 1995.078125L4251.40625 2135.859375M4303.828125 1995.078125L4303.828125 2135.859375M4356.210938 1995.078125L4356.210938 2135.859375M4408.632813 1995.078125L4408.632813 2135.859375M4198.984375 1995.078125L4198.984375 2181.484375M3936.914063 1992.773438L3936.914063 2234.960938M4513.4375 1995.078125L4513.4375 2135.859375M4565.898438 1995.078125L4565.898438 2135.859375M4618.28125 1995.078125L4618.28125 2135.859375M4670.703125 1995.078125L4670.703125 2135.859375M4775.507813 1995.078125L4775.507813 2135.859375M4827.929688 1995.078125L4827.929688 2135.859375M4880.351563 1995.078125L4880.351563 2135.859375M4932.773438 1995.078125L4932.773438 2135.859375M4723.125 1995.078125L4723.125 2181.484375M4461.054688 1995.078125L4461.054688 2234.960938" transform="matrix(.1 0 0 -.1 0 337.5)" fill="none" stroke-width="5.099" stroke="#000" stroke-miterlimit="10" />
  <path d="M 1818.320313 1932.578125 L 4319.140625 1935.3125 L 4319.296875 1813.554688 L 1818.476563 1810.820313 Z M 1818.320313 1932.578125" transform="matrix(.1 0 0 -.1 0 337.5)" fill="#8c8c8c" stroke-width="5.099" stroke="#000" stroke-miterlimit="10" />
  <path d="M 1818.359375 1932.617188 L 1842.539063 2071.367188 L 4432.539063 2071.367188 L 4432.539063 1935.585938 Z M 1818.359375 1932.617188" transform="matrix(.1 0 0 -.1 0 337.5)" fill="#fff" stroke-width="5.099" stroke="#000" stroke-miterlimit="10" />
  <g clip-path="url(#svg249136768743tikz_00001h)">
    <path d="M 185.746094 159.175781 L 174.085938 315.921875 L 175.578125 321.507813 C 175.578125 321.507813 194.410156 321.484375 200.554688 303.617188 C 206.695313 285.757813 240.648438 187.996094 240.648438 187.996094 C 240.648438 187.996094 242.070313 182.472656 251.355469 182.460938 C 262.71875 182.445313 431.964844 182.261719 431.964844 182.261719 L 431.925781 155.621094 Z M 185.746094 159.175781" fill="#8c8c8c" />
  </g>
  <g clip-path="url(#svg249136768743tikz_00001i)">
    <path d="M 1857.460938 1783.242188 L 1740.859375 215.78125 L 1755.78125 159.921875 C 1755.78125 159.921875 1944.101563 160.15625 2005.546875 338.828125 C 2066.953125 517.421875 2406.484375 1495.039063 2406.484375 1495.039063 C 2406.484375 1495.039063 2420.703125 1550.273438 2513.554688 1550.390625 C 2627.1875 1550.546875 4319.648438 1552.382813 4319.648438 1552.382813 L 4319.257813 1818.789063 Z M 1857.460938 1783.242188" transform="matrix(.1 0 0 -.1 0 337.5)" fill="none" stroke-width="5.099" stroke="#000" stroke-miterlimit="10" />
  </g>
  <path d="M 184.253906 153.585938 L 174.085938 315.921875 C 174.085938 315.921875 192.914063 315.894531 199.058594 298.03125 C 205.203125 280.164063 239.15625 182.402344 239.15625 182.402344 C 239.15625 182.402344 240.574219 176.882813 249.863281 176.871094 C 261.222656 176.855469 431.957031 176.667969 431.957031 176.667969 L 431.921875 150.027344 Z M 184.253906 153.585938" fill="#ccc" />
  <g clip-path="url(#svg249136768743tikz_00001j)">
    <path d="M 1842.539063 1839.140625 L 1740.859375 215.78125 C 1740.859375 215.78125 1929.140625 216.054688 1990.585938 394.6875 C 2052.03125 573.359375 2391.5625 1550.976563 2391.5625 1550.976563 C 2391.5625 1550.976563 2405.742188 1606.171875 2498.632813 1606.289063 C 2612.226563 1606.445313 4319.570313 1608.320313 4319.570313 1608.320313 L 4319.21875 1874.726563 Z M 1842.539063 1839.140625" transform="matrix(.1 0 0 -.1 0 337.5)" fill="none" stroke-width="5.099" stroke="#000" stroke-miterlimit="10" />
  </g>
  <path d="M 4297.109375 1621.5625 L 3203.710938 1713.4375 C 3203.710938 1713.4375 3132.03125 1639.492188 3207.460938 1503.007813 C 3282.890625 1366.523438 3475.039063 1503.359375 3580.976563 1503.515625 C 3686.875 1503.671875 3725.976563 1425.664063 3837.539063 1378.4375 C 3949.101563 1331.210938 4116.328125 1328.632813 4250.039063 1378.984375 C 4308.554688 1398.59375 4297.109375 1621.5625 4297.109375 1621.5625 Z M 4297.109375 1621.5625" transform="matrix(.1 0 0 -.1 0 337.5)" fill="#ccc" stroke-width="5.099" stroke="#000" stroke-miterlimit="10" />
  <path d="M 4296.992188 1704.53125 L 3262.851563 1744.960938 C 3262.851563 1744.960938 3131.914063 1722.5 3207.34375 1586.015625 C 3282.773438 1449.53125 3474.921875 1586.40625 3580.859375 1586.523438 C 3686.757813 1586.640625 3725.898438 1508.671875 3837.421875 1461.445313 C 3948.984375 1414.21875 4116.210938 1411.640625 4249.921875 1462.03125 C 4308.4375 1481.601563 4296.992188 1704.53125 4296.992188 1704.53125 Z M 4296.992188 1704.53125" transform="matrix(.1 0 0 -.1 0 337.5)" fill="#fff" stroke-width="5.099" stroke="#000" stroke-miterlimit="10" />
  <path d="M 3377.460938 1640.351563 C 3377.421875 1660.507813 3351.484375 1676.835938 3319.53125 1676.796875 C 3287.578125 1676.757813 3261.71875 1660.351563 3261.757813 1640.195313 C 3261.757813 1620.039063 3287.695313 1603.671875 3319.648438 1603.75 C 3351.601563 1603.789063 3377.460938 1620.15625 3377.460938 1640.351563 Z M 3377.460938 1640.351563" transform="matrix(.1 0 0 -.1 0 337.5)" fill="#fff" stroke-width="5.099" stroke="#000" stroke-miterlimit="10" />
  <path d="M2245.742188 2019.765625L2245.742188 2071.367188M2348.242188 2034.882813L2348.242188 2071.367188M2450.703125 2019.765625L2450.703125 2071.367188M2553.203125 2034.882813L2553.203125 2071.367188M2655.703125 2019.765625L2655.703125 2071.367188M2758.203125 2034.882813L2758.203125 2071.367188M2860.703125 2019.765625L2860.703125 2071.367188M2963.203125 2034.882813L2963.203125 2071.367188M3065.664063 2019.765625L3065.664063 2071.367188M3168.164063 2034.882813L3168.164063 2071.367188M3270.664063 2019.765625L3270.664063 2071.367188M3373.164063 2034.882813L3373.164063 2071.367188M3475.625 2019.765625L3475.625 2071.367188M3578.125 2034.882813L3578.125 2071.367188M3674.84375 2019.765625L3674.84375 2071.367188M3778.28125 2034.882813L3778.28125 2071.367188M3881.757813 2019.765625L3881.757813 2071.367188M3985.195313 2034.882813L3985.195313 2071.367188M4088.671875 2019.765625L4088.671875 2071.367188M4192.148438 2034.882813L4192.148438 2071.367188M4295.585938 2019.765625L4295.585938 2071.367188" transform="matrix(.1 0 0 -.1 0 337.5)" fill="none" stroke-width="5.099" stroke="#000" stroke-miterlimit="10" />
  <path d="M2573.164063 1989.882813C2573.164063 2138.945313 2432.5 2259.804688 2258.945313 2259.804688 2085.351563 2259.804688 1944.6875 2138.945313 1944.6875 1989.882813 1944.6875 1840.859375 2085.351563 1719.960938 2258.945313 1719.960938 2432.5 1719.960938 2573.164063 1840.859375 2573.164063 1989.882813zM4041.210938 1952.695313C4041.210938 1811.71875 3926.914063 1697.382813 3785.898438 1697.382813 3644.882813 1697.382813 3530.585938 1811.71875 3530.585938 1952.695313 3530.585938 2093.710938 3644.882813 2208.046875 3785.898438 2208.046875 3926.914063 2208.046875 4041.210938 2093.710938 4041.210938 1952.695313zM2798.398438 1215.195313L2258.945313 1719.960938M3785.898438 1697.382813L4325.390625 1163.398438" transform="matrix(.1 0 0 -.1 0 337.5)" fill="none" stroke-width="10.199" stroke="#e14b3b" stroke-miterlimit="10" />
  <path d="M 1801.289063 1284.023438 C 1801.289063 988.242188 1561.484375 748.398438 1265.664063 748.398438 C 969.882813 748.398438 730.078125 988.242188 730.078125 1284.023438 C 730.078125 1579.84375 969.882813 1819.648438 1265.664063 1819.648438 C 1561.484375 1819.648438 1801.289063 1579.84375 1801.289063 1284.023438 Z M 1801.289063 1284.023438" transform="matrix(.1 0 0 -.1 0 337.5)" fill="#4a83bc" stroke-width="5.099" stroke-linecap="round" stroke-linejoin="round" stroke="#000" stroke-miterlimit="10" />
  <path d="M 164.148438 170.945313 C 168.664063 178.796875 171.261719 187.894531 171.261719 197.601563 C 171.261719 227.183594 147.28125 251.164063 117.699219 251.164063 C 103.054688 251.164063 89.789063 245.277344 80.117188 235.753906 C 89.363281 251.828125 106.695313 262.660156 126.566406 262.660156 C 156.148438 262.660156 180.128906 238.675781 180.128906 209.097656 C 180.128906 194.160156 174.011719 180.660156 164.148438 170.945313 Z M 164.148438 170.945313" fill="#2a6393" />
  <path d="M 1801.289063 1284.023438 C 1801.289063 988.242188 1561.484375 748.398438 1265.664063 748.398438 C 969.882813 748.398438 730.078125 988.242188 730.078125 1284.023438 C 730.078125 1579.84375 969.882813 1819.648438 1265.664063 1819.648438 C 1561.484375 1819.648438 1801.289063 1579.84375 1801.289063 1284.023438 Z M 1801.289063 1284.023438" transform="matrix(.1 0 0 -.1 0 337.5)" fill="none" stroke-width="5.099" stroke-linecap="round" stroke-linejoin="round" stroke="#000" stroke-miterlimit="10" />
  <path d="M 4665.390625 823.398438 C 4665.390625 815.507813 4665.15625 807.695313 4664.609375 799.960938 C 4664.21875 793.242188 4663.515625 786.601563 4662.695313 779.921875 L 3988.125 779.921875 C 3987.34375 786.328125 3986.679688 792.695313 3986.25 799.21875 C 3985.664063 807.1875 3985.390625 815.234375 3985.390625 823.398438 C 3985.390625 843.789063 3987.148438 863.710938 3990.625 883.085938 C 3996.796875 917.96875 4008.28125 951.054688 4024.296875 981.40625 C 4028.515625 989.453125 4032.96875 997.226563 4037.890625 1004.84375 C 4098.125 1100.117188 4204.375 1163.398438 4325.390625 1163.398438 C 4400.625 1163.398438 4470.195313 1138.945313 4526.484375 1097.539063 C 4552.96875 1078.164063 4576.445313 1054.960938 4596.289063 1028.828125 C 4607.617188 1013.945313 4617.734375 998.125 4626.484375 981.40625 C 4642.539063 951.054688 4654.023438 917.96875 4660.195313 883.085938 C 4663.671875 863.710938 4665.390625 843.789063 4665.390625 823.398438 Z M 4665.390625 823.398438" transform="matrix(.1 0 0 -.1 0 337.5)" fill="#8c8c8c" stroke-width="5.099" stroke="#000" stroke-miterlimit="10" />
  <path d="M 4660.195313 883.085938 L 3990.625 883.085938 C 3996.796875 917.96875 4008.28125 951.054688 4024.296875 981.40625 C 4028.515625 989.453125 4032.96875 997.226563 4037.890625 1004.84375 C 4098.125 1100.117188 4204.375 1163.398438 4325.390625 1163.398438 C 4400.625 1163.398438 4470.195313 1138.945313 4526.484375 1097.539063 C 4552.96875 1078.164063 4576.445313 1054.960938 4596.289063 1028.828125 C 4607.617188 1013.945313 4617.734375 998.125 4626.484375 981.40625 C 4642.539063 951.054688 4654.023438 917.96875 4660.195313 883.085938 Z M 4660.195313 883.085938" transform="matrix(.1 0 0 -.1 0 337.5)" fill="#ccc" stroke-width="5.099" stroke="#000" stroke-miterlimit="10" />
  <path d="M4037.890625 879.804688L4037.890625 1010.078125M4107.695313 879.804688L4107.695313 1067.265625M4247.304688 879.804688L4247.304688 1067.265625M4317.070313 879.804688L4317.070313 1067.265625M4386.875 879.804688L4386.875 1067.265625M4456.679688 879.804688L4456.679688 1067.265625M4177.5 879.804688L4177.5 1128.046875M4596.289063 879.804688L4596.289063 1028.828125M4526.484375 876.71875L4526.484375 1097.226563" transform="matrix(.1 0 0 -.1 0 337.5)" fill="none" stroke-width="5.099" stroke="#000" stroke-miterlimit="10" />
  <path d="M 4664.609375 799.960938 C 4664.21875 793.242188 4663.515625 786.601563 4662.695313 779.921875 C 4659.765625 757.1875 4654.609375 735.039063 4647.421875 713.90625 C 4638.398438 687.304688 4626.09375 662.1875 4611.015625 638.945313 C 4610.820313 638.554688 4610.546875 638.125 4610.195313 637.734375 L 4521.445313 637.65625 L 4041.015625 637.109375 C 4027.070313 658.164063 4015.546875 680.859375 4006.71875 704.765625 C 3997.734375 728.671875 3991.445313 753.867188 3988.125 779.921875 C 3987.34375 786.328125 3986.679688 792.695313 3986.25 799.21875 Z M 4664.609375 799.960938" transform="matrix(.1 0 0 -.1 0 337.5)" fill="#8c8c8c" stroke-width="5.099" stroke="#000" stroke-miterlimit="10" />
  <path d="M 4665.390625 823.398438 C 4665.390625 815.507813 4665.15625 807.695313 4664.609375 799.960938 L 3986.289063 799.21875 C 3985.664063 807.1875 3985.390625 815.234375 3985.390625 823.398438 C 3985.390625 843.789063 3987.148438 863.710938 3990.625 883.085938 C 3996.796875 917.96875 4008.28125 951.054688 4024.296875 981.40625 L 4626.484375 981.40625 C 4642.539063 951.054688 4654.023438 917.96875 4660.195313 883.085938 C 4663.671875 863.710938 4665.390625 843.789063 4665.390625 823.398438 Z M 4665.390625 823.398438" transform="matrix(.1 0 0 -.1 0 337.5)" fill="#fff" stroke-width="5.099" stroke="#000" stroke-miterlimit="10" />
  <path d="M 4610.195313 637.734375 C 4575.234375 584.0625 4525.46875 540.898438 4466.640625 514.023438 C 4423.671875 494.296875 4375.859375 483.398438 4325.390625 483.398438 C 4265.585938 483.398438 4209.335938 498.867188 4160.507813 525.976563 C 4114.453125 551.5625 4074.960938 587.539063 4045.195313 630.742188 L 4521.445313 637.65625 L 4611.015625 638.945313" transform="matrix(.1 0 0 -.1 0 337.5)" fill="#8c8c8c" stroke-width="5.099" stroke="#000" stroke-miterlimit="10" />
  <path d="M 4041.015625 637.109375 C 4027.070313 658.164063 4015.546875 680.859375 4006.71875 704.765625 L 4647.421875 713.90625 C 4638.398438 687.304688 4626.09375 662.1875 4611.015625 638.945313" transform="matrix(.1 0 0 -.1 0 337.5)" fill="#ccc" stroke-width="5.099" stroke="#000" stroke-miterlimit="10" />
  <path d="M 462.714844 271.1875 C 459.21875 276.550781 452.546875 283.410156 446.664063 286.097656 C 442.367188 288.066406 437.585938 289.160156 432.539063 289.160156 C 426.558594 289.160156 420.933594 287.613281 416.050781 284.902344 C 411.445313 282.34375 405.648438 276.203125 402.671875 271.886719" fill="#ccc" />
  <path d="M 4325.390625 483.398438 C 4265.585938 483.398438 4209.335938 498.867188 4160.507813 525.976563 L 4466.640625 514.023438 C 4423.671875 494.296875 4375.859375 483.398438 4325.390625 483.398438 Z M 4325.390625 483.398438" transform="matrix(.1 0 0 -.1 0 337.5)" fill="#fff" stroke-width="5.099" stroke="#000" stroke-miterlimit="10" />
  <path d="M4048.710938 932.8125L4048.710938 981.40625M4177.5 912.65625L4177.5 981.40625M4315.273438 932.8125L4315.273438 981.40625M4453.046875 912.65625L4453.046875 981.40625M4590.820313 932.8125L4590.820313 981.40625" transform="matrix(.1 0 0 -.1 0 337.5)" fill="none" stroke-width="5.099" stroke="#000" stroke-miterlimit="10" />
  <path d="M 4665.390625 823.398438 C 4665.390625 815.507813 4665.15625 807.695313 4664.609375 799.960938 C 4664.21875 793.242188 4663.515625 786.601563 4662.695313 779.921875 C 4659.765625 757.1875 4654.609375 735.039063 4647.421875 713.90625 C 4638.398438 687.304688 4626.09375 662.1875 4611.015625 638.945313 C 4610.820313 638.554688 4610.546875 638.125 4610.195313 637.734375 C 4575.234375 584.0625 4525.46875 540.898438 4466.640625 514.023438 C 4423.671875 494.296875 4375.859375 483.398438 4325.390625 483.398438 C 4265.585938 483.398438 4209.335938 498.867188 4160.507813 525.976563 C 4114.453125 551.5625 4074.960938 587.539063 4045.195313 630.742188 C 4043.789063 632.851563 4042.34375 634.960938 4041.015625 637.109375 C 4027.070313 658.164063 4015.546875 680.859375 4006.71875 704.765625 C 3997.734375 728.671875 3991.445313 753.867188 3988.125 779.921875 C 3987.34375 786.328125 3986.679688 792.695313 3986.289063 799.21875 C 3985.664063 807.1875 3985.390625 815.234375 3985.390625 823.398438 C 3985.390625 843.789063 3987.148438 863.710938 3990.625 883.085938 C 3996.796875 917.96875 4008.28125 951.054688 4024.296875 981.40625 C 4028.515625 989.453125 4032.96875 997.226563 4037.890625 1004.84375 C 4098.125 1100.117188 4204.375 1163.398438 4325.390625 1163.398438 C 4400.625 1163.398438 4470.195313 1138.945313 4526.484375 1097.539063 C 4552.96875 1078.164063 4576.445313 1054.960938 4596.289063 1028.828125 C 4607.617188 1013.945313 4617.734375 998.125 4626.484375 981.40625 C 4642.539063 951.054688 4654.023438 917.96875 4660.195313 883.085938 C 4663.671875 863.710938 4665.390625 843.789063 4665.390625 823.398438 Z M 4665.390625 823.398438" transform="matrix(.1 0 0 -.1 0 337.5)" fill="none" stroke-width="10.199" stroke="#e14b3b" stroke-miterlimit="10" />
  <path d="M 3182.96875 893.59375 L 2412.695313 893.59375 C 2412.734375 896.71875 2412.851563 899.84375 2413.125 902.890625 C 2414.921875 931.132813 2420.859375 958.320313 2430.390625 984.140625 C 2479.726563 1118.085938 2625.585938 1215.195313 2797.851563 1215.195313 C 2970.117188 1215.195313 3115.9375 1118.085938 3165.273438 984.140625 C 3175.859375 955.429688 3181.992188 925.039063 3182.96875 893.59375 Z M 3182.96875 893.59375" transform="matrix(.1 0 0 -.1 0 337.5)" fill="#ccc" stroke-width="5.099" stroke="#000" stroke-miterlimit="10" />
  <path d="M2413.125 902.890625L2413.125 890.585938M2477.382813 890.585938L2477.382813 1063.164063M2541.640625 890.585938L2541.640625 1063.164063M2670.195313 890.585938L2670.195313 1063.164063M2734.453125 890.585938L2734.453125 1063.164063M2798.710938 890.585938L2798.710938 1063.164063M2863.007813 890.585938L2863.007813 1063.164063M2605.9375 890.585938L2605.9375 1119.140625M2991.5625 890.585938L2991.5625 1063.164063M3055.820313 890.585938L3055.820313 1063.164063M3120.078125 890.585938L3120.078125 1063.164063M3184.335938 890.585938L3184.335938 893.59375M2927.304688 887.734375L2927.304688 1184.765625" transform="matrix(.1 0 0 -.1 0 337.5)" fill="none" stroke-width="5.099" stroke="#000" stroke-miterlimit="10" />
  <path d="M 3174.726563 815 C 3173.359375 809.492188 3171.875 803.984375 3170.117188 798.59375 C 3160.46875 767.539063 3145.664063 738.203125 3126.5625 711.445313 C 3114.960938 695.195313 3101.757813 679.882813 3087.109375 665.625 L 2509.257813 665 L 2509.21875 665 C 2497.148438 676.601563 2486.09375 688.984375 2476.09375 702.070313 C 2453.554688 731.328125 2436.328125 763.867188 2425.546875 798.59375 C 2423.945313 803.75 2422.421875 808.90625 2421.171875 814.179688 Z M 3174.726563 815" transform="matrix(.1 0 0 -.1 0 337.5)" fill="#8c8c8c" stroke-width="5.099" stroke="#000" stroke-miterlimit="10" />
  <path d="M 3183.164063 884.21875 C 3183.164063 860.507813 3180.273438 837.382813 3174.726563 815.078125 L 2421.171875 814.179688 C 2415.507813 836.757813 2412.460938 860.195313 2412.460938 884.21875 C 2412.460938 887.34375 2412.539063 890.46875 2412.695313 893.59375 C 2412.734375 896.71875 2412.851563 899.84375 2413.125 902.890625 C 2414.921875 931.132813 2420.859375 958.320313 2430.390625 984.140625 L 3165.273438 984.140625 C 3175.859375 955.429688 3181.992188 925.039063 3182.96875 893.59375 C 3183.085938 890.46875 3183.164063 887.34375 3183.164063 884.21875 Z M 3183.164063 884.21875" transform="matrix(.1 0 0 -.1 0 337.5)" fill="#fff" stroke-width="5.099" stroke="#000" stroke-miterlimit="10" />
  <path d="M 2797.851563 553.242188 C 2701.25 553.242188 2612.890625 583.828125 2545.3125 634.21875 L 3060.039063 641.640625 C 2991.328125 586.835938 2899.101563 553.242188 2797.851563 553.242188 Z M 2797.851563 553.242188" transform="matrix(.1 0 0 -.1 0 337.5)" fill="#8c8c8c" stroke-width="5.099" stroke="#000" stroke-miterlimit="10" />
  <path d="M 3126.5625 711.445313 C 3114.960938 695.195313 3101.757813 679.882813 3087.109375 665.625 C 3078.59375 657.226563 3069.726563 649.453125 3060.234375 641.640625 L 3060.039063 641.640625 C 2991.328125 586.835938 2899.101563 553.242188 2797.851563 553.242188 C 2701.25 553.242188 2612.890625 583.828125 2545.3125 634.21875 L 2545.117188 634.21875 C 2532.34375 643.90625 2520.390625 654.0625 2509.257813 665 L 2509.21875 665 C 2497.148438 676.640625 2486.09375 688.984375 2476.09375 702.070313 Z M 3126.5625 711.445313" transform="matrix(.1 0 0 -.1 0 337.5)" fill="#ccc" stroke-width="5.099" stroke="#000" stroke-miterlimit="10" />
  <path d="M2781.640625 920.859375L2781.640625 984.140625M2907.34375 939.375L2907.34375 984.140625M3033.007813 920.859375L3033.007813 984.140625M3158.671875 939.375L3158.671875 984.140625" transform="matrix(.1 0 0 -.1 0 337.5)" fill="none" stroke-width="5.099" stroke="#000" stroke-miterlimit="10" />
  <path d="M 3183.164063 884.21875 C 3183.164063 860.507813 3180.273438 837.382813 3174.726563 815.078125 L 3174.726563 815 C 3173.359375 809.492188 3171.875 803.984375 3170.117188 798.59375 C 3160.46875 767.539063 3145.664063 738.203125 3126.5625 711.445313 C 3114.960938 695.195313 3101.757813 679.882813 3087.109375 665.625 C 3078.59375 657.226563 3069.726563 649.453125 3060.234375 641.640625 L 3060.039063 641.640625 C 2991.328125 586.835938 2899.101563 553.242188 2797.851563 553.242188 C 2701.25 553.242188 2612.890625 583.828125 2545.3125 634.21875 L 2545.117188 634.21875 C 2532.34375 643.90625 2520.390625 654.0625 2509.257813 665 L 2509.21875 665 C 2497.148438 676.601563 2486.09375 688.984375 2476.09375 702.070313 C 2453.554688 731.328125 2436.328125 763.867188 2425.546875 798.59375 C 2423.945313 803.75 2422.421875 808.90625 2421.171875 814.179688 C 2415.507813 836.757813 2412.460938 860.195313 2412.460938 884.21875 C 2412.460938 887.34375 2412.539063 890.46875 2412.695313 893.59375 C 2412.734375 896.71875 2412.851563 899.84375 2413.125 902.890625 C 2414.921875 931.132813 2420.859375 958.320313 2430.390625 984.140625 C 2479.726563 1118.085938 2625.585938 1215.195313 2797.851563 1215.195313 C 2970.117188 1215.195313 3115.9375 1118.085938 3165.273438 984.140625 C 3175.859375 955.429688 3181.992188 925.039063 3182.96875 893.59375 C 3183.085938 890.46875 3183.164063 887.34375 3183.164063 884.21875 Z M 3183.164063 884.21875" transform="matrix(.1 0 0 -.1 0 337.5)" fill="none" stroke-width="10.199" stroke="#e14b3b" stroke-miterlimit="10" />
  <path d="M53.050781 107.746094C52.550781 108.394531 52.171875 108.675781 51.445313 108.675781 50.296875 108.675781 49.75 107.714844 49.75 106.355469 49.75 105.070313 50.296875 104.402344 51.199219 104.402344 52.160156 104.402344 51.789063 105.671875 52.617188 105.671875 52.929688 105.671875 53.085938 105.496094 53.085938 105.171875 53.085938 104.523438 52.4375 103.988281 51.390625 103.988281 49.78125 103.988281 48.867188 105.128906 48.867188 106.878906 48.867188 108.429688 49.703125 109.511719 51.101563 109.511719 52.292969 109.511719 52.839844 108.808594 53.265625 107.90625L53.050781 107.746094M55.5625 105.417969C55.886719 105.117188 56.378906 104.703125 56.957031 104.703125 57.472656 104.703125 57.851563 104.949219 57.851563 105.898438L57.851563 108.105469C57.851563 108.886719 57.785156 109.078125 56.992188 109.078125L56.992188 109.398438 59.636719 109.398438 59.636719 109.078125C58.832031 109.078125 58.777344 108.875 58.777344 108.105469L58.777344 105.394531C59.144531 105.082031 59.601563 104.703125 60.058594 104.703125 60.585938 104.703125 61.019531 104.949219 61.019531 105.964844L61.019531 108.105469C61.019531 108.785156 60.984375 109.078125 60.226563 109.078125L60.226563 109.398438 62.75 109.398438 62.75 109.078125C61.976563 109.078125 61.945313 108.808594 61.945313 108.105469L61.945313 105.828125C61.945313 104.480469 61.375 103.988281 60.507813 103.988281 59.914063 103.988281 59.34375 104.3125 58.734375 104.914063L58.6875 104.914063C58.464844 104.378906 58.085938 103.988281 57.449219 103.988281 56.691406 103.988281 56.179688 104.402344 55.574219 104.925781L55.53125 104.925781 55.53125 104.023438 55.261719 104.023438 53.867188 104.347656 53.867188 104.671875C53.867188 104.671875 54 104.648438 54.167969 104.648438 54.480469 104.648438 54.636719 104.746094 54.636719 105.148438L54.636719 108.273438C54.636719 108.941406 54.558594 109.078125 53.855469 109.078125L53.855469 109.398438 56.398438 109.398438 56.398438 109.078125C55.710938 109.078125 55.5625 108.941406 55.5625 108.316406L55.5625 105.417969M81.621094 106.765625C81.621094 104.464844 80.617188 103.136719 79.179688 103.136719 77.5625 103.136719 76.703125 104.609375 76.703125 106.730469 76.703125 108.703125 77.359375 110.421875 79.15625 110.421875 80.90625 110.421875 81.621094 108.671875 81.621094 106.765625zM80.539063 106.828125C80.539063 108.972656 80.039063 110.019531 79.15625 110.019531 78.261719 110.019531 77.773438 108.949219 77.773438 106.785156 77.773438 104.578125 78.261719 103.515625 79.144531 103.515625 80.058594 103.515625 80.539063 104.566406 80.539063 106.828125M132.953125 110.398438L132.953125 110.085938C131.925781 110.085938 131.515625 109.886719 131.515625 109.339844L131.515625 103.273438 131.191406 103.273438 129.023438 103.882813 129.023438 104.253906C129.371094 104.140625 129.941406 104.074219 130.164063 104.074219 130.441406 104.074219 130.53125 104.230469 130.53125 104.621094L130.53125 109.339844C130.53125 109.898438 130.140625 110.085938 129.09375 110.085938L129.09375 110.398438 132.953125 110.398438M186.476563 108.617188L186.152344 108.617188C185.898438 109.285156 185.753906 109.519531 185.160156 109.519531L183.609375 109.519531 182.828125 109.550781 182.828125 109.496094 184.300781 108.101563C185.484375 106.90625 186.117188 106.140625 186.117188 105.144531 186.117188 103.972656 185.238281 103.214844 183.976563 103.214844 182.894531 103.214844 182.136719 103.839844 181.789063 104.921875L182.058594 105.035156C182.472656 104.195313 182.964844 103.941406 183.6875 103.941406 184.546875 103.941406 185.082031 104.476563 185.082031 105.3125 185.082031 106.484375 184.523438 107.1875 183.421875 108.324219L181.722656 110.019531 181.722656 110.398438 186.117188 110.398438 186.476563 108.617188M234.160156 104.742188C234.539063 104.152344 234.953125 103.839844 235.621094 103.839844 236.3125 103.839844 236.757813 104.21875 236.757813 104.878906 236.757813 105.78125 235.96875 106.394531 235.207031 106.394531L234.996094 106.394531 234.996094 106.820313 235.21875 106.820313C236.289063 106.820313 237.238281 107.476563 237.238281 108.46875 237.238281 109.5625 236.558594 109.886719 235.855469 109.886719 235.589844 109.886719 235.429688 109.84375 234.953125 109.597656 234.5625 109.398438 234.472656 109.339844 234.292969 109.339844 234.003906 109.339844 233.859375 109.597656 233.859375 109.832031 233.859375 110.121094 234.101563 110.445313 235.109375 110.445313 236.734375 110.445313 238.152344 109.664063 238.152344 108.136719 238.152344 107.140625 237.40625 106.550781 236.515625 106.273438L236.515625 106.238281C237.214844 105.792969 237.71875 105.378906 237.71875 104.609375 237.71875 103.761719 237.058594 103.117188 235.921875 103.117188 235.007813 103.117188 234.316406 103.628906 233.902344 104.597656L234.160156 104.742188M290.367188 108.636719L290.367188 107.867188 289.226563 107.867188 289.226563 103.203125 288.546875 103.203125 285.144531 107.933594 285.144531 108.636719 288.234375 108.636719 288.234375 110.398438 289.226563 110.398438 289.226563 108.636719zM288.234375 107.867188L285.757813 107.867188 285.757813 107.824219 288.191406 104.421875 288.234375 104.421875 288.234375 107.867188M342.953125 104.074219L343.132813 103.171875 340.074219 103.171875 339.382813 106.082031 339.515625 106.25C339.671875 106.25 339.726563 106.25 340.019531 106.273438 341.558594 106.351563 342.429688 106.808594 342.429688 108.203125 342.429688 109.363281 341.726563 109.785156 340.933594 109.785156 340.21875 109.785156 339.851563 109.242188 339.40625 109.242188 339.125 109.242188 338.957031 109.464844 338.957031 109.71875 338.957031 110.132813 339.382813 110.34375 340.242188 110.34375 342.015625 110.34375 343.242188 109.476563 343.242188 107.757813 343.242188 106.003906 341.871094 105.480469 340.554688 105.382813L340.03125 105.347656 340.328125 104.074219 342.953125 104.074219M395.03125 103.09375C392.632813 103.195313 390.902344 104.742188 390.902344 107.433594 390.902344 109.074219 391.628906 110.433594 393.289063 110.433594 394.695313 110.433594 395.496094 109.554688 395.496094 108.035156 395.496094 106.574219 394.707031 105.691406 393.492188 105.691406 392.910156 105.691406 392.496094 105.9375 392.039063 106.382813L391.964844 106.371094C392.242188 104.742188 393.492188 103.652344 395.050781 103.417969zM394.527344 108.125C394.527344 109.539063 394.082031 110.042969 393.335938 110.042969 392.363281 110.042969 391.90625 109.050781 391.90625 107.667969 391.90625 106.695313 392.507813 106.339844 393.15625 106.339844 394.082031 106.339844 394.527344 107.121094 394.527344 108.125M448.777344 103.617188L448.777344 103.273438 444.515625 103.273438 444.070313 104.976563 444.414063 105.011719C444.714844 104.285156 444.804688 104.175781 445.429688 104.175781L447.917969 104.175781 445.285156 110.390625 446.164063 110.390625 448.777344 103.617188M226.382813 139.820313C226.382813 138.210938 225.621094 137.289063 224.585938 137.289063 223.476563 137.289063 222.765625 138.257813 222.765625 139.804688 222.765625 141.199219 223.289063 142.398438 224.570313 142.398438 225.839844 142.398438 226.382813 141.148438 226.382813 139.820313zM225.582031 139.871094C225.582031 141.335938 225.214844 142.074219 224.570313 142.074219 223.929688 142.074219 223.5625 141.347656 223.5625 139.84375 223.5625 138.316406 223.914063 137.597656 224.570313 137.597656 225.238281 137.597656 225.582031 138.308594 225.582031 139.871094M246.535156 142.300781L246.535156 142.03125C245.84375 142.03125 245.636719 141.910156 245.636719 141.527344L245.636719 137.304688 245.3125 137.304688 243.929688 137.6875 243.929688 137.984375C244.121094 137.933594 244.453125 137.882813 244.609375 137.882813 244.820313 137.882813 244.886719 137.992188 244.886719 138.265625L244.886719 141.527344C244.886719 141.910156 244.714844 142.03125 243.996094 142.03125L243.996094 142.300781 246.535156 142.300781M267.5625 140.996094L267.300781 140.996094C267.105469 141.484375 267.015625 141.648438 266.589844 141.648438L265.617188 141.648438 265.03125 141.679688 265.03125 141.628906 265.96875 140.71875C266.796875 139.902344 267.320313 139.355469 267.320313 138.621094 267.320313 137.777344 266.6875 137.273438 265.796875 137.273438 265.023438 137.273438 264.492188 137.703125 264.242188 138.398438L264.445313 138.496094C264.722656 138.007813 265.070313 137.804688 265.609375 137.804688 266.191406 137.804688 266.535156 138.1875 266.535156 138.71875 266.535156 139.566406 266.140625 140.015625 265.300781 140.855469L264.238281 141.933594 264.238281 142.300781 267.308594 142.300781 267.5625 140.996094M284.828125 138.40625C285.078125 138.003906 285.40625 137.804688 285.847656 137.804688 286.320313 137.804688 286.65625 138.054688 286.65625 138.519531 286.65625 139.148438 286.078125 139.535156 285.546875 139.535156L285.390625 139.535156 285.390625 139.890625 285.554688 139.890625C286.335938 139.890625 286.96875 140.324219 286.96875 141.003906 286.96875 141.78125 286.445313 141.984375 286.003906 141.984375 285.789063 141.984375 285.714844 141.949219 285.367188 141.78125 285.089844 141.628906 285.023438 141.582031 284.925781 141.582031 284.6875 141.582031 284.597656 141.789063 284.597656 141.957031 284.597656 142.171875 284.761719 142.398438 285.488281 142.398438 286.628906 142.398438 287.675781 141.902344 287.675781 140.796875 287.675781 140.070313 287.144531 139.664063 286.515625 139.5L286.515625 139.460938C287 139.148438 287.375 138.863281 287.375 138.324219 287.375 137.710938 286.84375 137.273438 286.042969 137.273438 285.421875 137.273438 284.910156 137.621094 284.613281 138.300781L284.828125 138.40625M309.121094 141.117188L309.121094 140.503906 308.304688 140.503906 308.304688 137.28125 307.765625 137.28125 305.363281 140.546875 305.363281 141.117188 307.5625 141.117188 307.5625 142.300781 308.304688 142.300781 308.304688 141.117188zM307.5625 140.503906L305.871094 140.503906 305.871094 140.457031 307.519531 138.1875 307.5625 138.1875 307.5625 140.503906M328.308594 137.945313L328.40625 137.285156 326.226563 137.285156 325.785156 139.414063 325.898438 139.527344C325.984375 139.535156 326.046875 139.535156 326.269531 139.535156 327.335938 139.5625 327.957031 139.863281 327.957031 140.820313 327.957031 141.585938 327.453125 141.886719 326.90625 141.886719 326.429688 141.886719 326.136719 141.480469 325.835938 141.480469 325.632813 141.480469 325.515625 141.652344 325.515625 141.839844 325.515625 142.140625 325.792969 142.296875 326.414063 142.296875 327.679688 142.296875 328.554688 141.742188 328.554688 140.5 328.554688 139.257813 327.53125 138.898438 326.617188 138.867188L326.285156 138.851563 326.449219 137.945313 328.308594 137.945313M349.078125 137.265625C347.371094 137.296875 346.082031 138.324219 346.082031 140.257813 346.082031 141.515625 346.621094 142.40625 347.789063 142.40625 348.800781 142.40625 349.4375 141.78125 349.4375 140.710938 349.4375 139.65625 348.828125 139.027344 347.984375 139.027344 347.550781 139.027344 347.257813 139.238281 346.929688 139.535156L346.867188 139.53125C347.09375 138.378906 347.992188 137.648438 349.085938 137.515625zM348.703125 140.765625C348.703125 141.730469 348.371094 142.074219 347.835938 142.074219 347.152344 142.074219 346.839844 141.453125 346.839844 140.464844 346.839844 139.789063 347.25 139.542969 347.738281 139.542969 348.371094 139.542969 348.703125 140.023438 348.703125 140.765625M369.1875 137.703125L369.1875 137.386719 366.207031 137.386719 365.953125 138.632813 366.253906 138.644531C366.429688 138.160156 366.476563 138.046875 366.949219 138.046875L368.566406 138.046875 366.804688 142.359375 367.464844 142.359375 369.1875 137.703125M390.195313 141.125C390.195313 140.480469 389.917969 140.113281 389.003906 139.589844L389.003906 139.550781C389.722656 139.160156 389.992188 138.914063 389.992188 138.339844 389.992188 137.710938 389.378906 137.261719 388.585938 137.261719 387.703125 137.261719 387.050781 137.703125 387.050781 138.421875 387.050781 138.96875 387.207031 139.28125 388.03125 139.820313L388.03125 139.851563C387.347656 140.285156 386.953125 140.546875 386.953125 141.191406 386.953125 142.007813 387.640625 142.40625 388.5625 142.40625 389.519531 142.40625 390.195313 141.960938 390.195313 141.125zM389.371094 138.332031C389.371094 138.816406 389.253906 139.101563 388.714844 139.417969 388 138.976563 387.722656 138.75 387.722656 138.308594 387.722656 137.8125 388.03125 137.558594 388.570313 137.558594 389.0625 137.558594 389.371094 137.804688 389.371094 138.332031zM388.292969 139.992188C389.253906 140.570313 389.484375 140.871094 389.484375 141.371094 389.484375 141.886719 389.078125 142.140625 388.59375 142.140625 388 142.140625 387.609375 141.84375 387.609375 141.109375 387.609375 140.609375 387.835938 140.351563 388.292969 139.992188M407.882813 142.40625C409.640625 142.398438 410.890625 141.476563 410.890625 139.417969 410.890625 138.164063 410.339844 137.265625 409.175781 137.265625 408.171875 137.265625 407.542969 137.890625 407.542969 138.953125 407.542969 140.007813 408.128906 140.636719 408.996094 140.636719 409.386719 140.636719 409.664063 140.464844 410.039063 140.136719L410.097656 140.144531C409.917969 141.378906 408.996094 142.03125 407.871094 142.164063zM408.277344 138.898438C408.277344 137.933594 408.644531 137.597656 409.167969 137.597656 409.867188 137.597656 410.144531 138.210938 410.144531 139.199219 410.144531 139.871094 409.714844 140.121094 409.238281 140.121094 408.609375 140.121094 408.277344 139.648438 408.277344 138.898438M429.433594 142.300781L429.433594 142.03125C428.746094 142.03125 428.535156 141.910156 428.535156 141.527344L428.535156 137.304688 428.214844 137.304688 426.828125 137.6875 426.828125 137.984375C427.023438 137.933594 427.351563 137.882813 427.511719 137.882813 427.71875 137.882813 427.789063 137.992188 427.789063 138.265625L427.789063 141.527344C427.789063 141.910156 427.617188 142.03125 426.898438 142.03125L426.898438 142.300781 429.433594 142.300781M433.984375 139.820313C433.984375 138.210938 433.21875 137.289063 432.1875 137.289063 431.078125 137.289063 430.367188 138.257813 430.367188 139.804688 430.367188 141.199219 430.890625 142.398438 432.171875 142.398438 433.4375 142.398438 433.984375 141.148438 433.984375 139.820313zM433.183594 139.871094C433.183594 141.335938 432.816406 142.074219 432.171875 142.074219 431.527344 142.074219 431.160156 141.347656 431.160156 139.84375 431.160156 138.316406 431.511719 137.597656 432.171875 137.597656 432.839844 137.597656 433.183594 138.308594 433.183594 139.871094M280.722656 251.363281C280.722656 249.066406 279.71875 247.738281 278.277344 247.738281 276.660156 247.738281 275.800781 249.210938 275.800781 251.328125 275.800781 253.304688 276.460938 255.023438 278.257813 255.023438 280.007813 255.023438 280.722656 253.273438 280.722656 251.363281zM279.640625 251.429688C279.640625 253.570313 279.136719 254.621094 278.257813 254.621094 277.363281 254.621094 276.871094 253.550781 276.871094 251.386719 276.871094 249.175781 277.363281 248.117188 278.242188 248.117188 279.160156 248.117188 279.640625 249.164063 279.640625 251.429688M305.652344 254.898438L305.652344 254.585938C304.628906 254.585938 304.214844 254.386719 304.214844 253.839844L304.214844 247.773438 303.890625 247.773438 301.726563 248.382813 301.726563 248.753906C302.070313 248.640625 302.640625 248.574219 302.863281 248.574219 303.140625 248.574219 303.230469 248.730469 303.230469 249.121094L303.230469 253.839844C303.230469 254.398438 302.839844 254.585938 301.792969 254.585938L301.792969 254.898438 305.652344 254.898438M419.878906 248.21875L419.878906 247.871094 415.613281 247.871094 415.167969 249.578125 415.515625 249.613281C415.816406 248.886719 415.90625 248.773438 416.53125 248.773438L419.015625 248.773438 416.382813 254.988281 417.265625 254.988281 419.878906 248.21875M447.398438 253.226563C447.398438 252.335938 446.996094 251.796875 445.691406 251.007813L445.691406 250.972656C446.726563 250.40625 447.128906 250.035156 447.128906 249.222656 447.128906 248.339844 446.28125 247.679688 445.179688 247.679688 443.949219 247.679688 443.058594 248.316406 443.058594 249.332031 443.058594 250.09375 443.304688 250.546875 444.441406 251.339844L444.441406 251.375C443.40625 252.066406 442.914063 252.421875 442.914063 253.316406 442.914063 254.453125 443.851563 255.035156 445.144531 255.035156 446.472656 255.035156 447.398438 254.398438 447.398438 253.226563zM446.304688 249.199219C446.304688 249.914063 446.082031 250.347656 445.34375 250.792969 444.351563 250.191406 443.929688 249.789063 443.929688 249.132813 443.929688 248.453125 444.398438 248.050781 445.15625 248.050781 445.871094 248.050781 446.304688 248.460938 446.304688 249.199219zM444.777344 251.554688C446.128906 252.421875 446.460938 252.835938 446.460938 253.550781 446.460938 254.308594 445.882813 254.6875 445.1875 254.6875 444.339844 254.6875 443.78125 254.230469 443.78125 253.226563 443.78125 252.457031 444.140625 252.066406 444.777344 251.554688" />
</svg>