<svg width="613.573" height="472.16" viewBox="0 0 460.18 354.12" class="displayed_equation" xmlns="http://www.w3.org/2000/svg">
  <defs>
    <clipPath id="svg397190763430tikz_00005a">
      <path d="M 15.734375 19 L 444.449219 19 L 444.449219 332 L 15.734375 332 Z M 15.734375 19" />
    </clipPath>
    <clipPath id="svg397190763430tikz_00005b">
      <path d="M 15.734375 15.734375 L 444.449219 15.734375 L 444.449219 324 L 15.734375 324 Z M 15.734375 15.734375" />
    </clipPath>
    <clipPath id="svg397190763430tikz_00005c">
      <path d="M 78 15.734375 L 101 15.734375 L 101 76 L 78 76 Z M 78 15.734375" />
    </clipPath>
    <clipPath id="svg397190763430tikz_00005d">
      <path d="M 207 123 L 444.449219 123 L 444.449219 156 L 207 156 Z M 207 123" />
    </clipPath>
  </defs>
  <path d="M 213.808594 219.089844 C 213.808594 257.609375 182.578125 288.835938 144.0625 288.835938 C 105.542969 288.835938 74.316406 257.609375 74.316406 219.089844 C 74.316406 180.574219 105.542969 149.347656 144.0625 149.347656 C 182.578125 149.347656 213.808594 180.574219 213.808594 219.089844 Z M 213.808594 219.089844" fill="#edb38c" />
  <path d="M 186.511719 218.234375 C 186.511719 242.058594 167.199219 261.367188 143.378906 261.367188 C 119.558594 261.367188 100.246094 242.058594 100.246094 218.234375 C 100.246094 194.414063 119.558594 175.105469 143.378906 175.105469 C 167.199219 175.105469 186.511719 194.414063 186.511719 218.234375 Z M 186.511719 218.234375" fill="#ea8e55" />
  <path d="M 179.613281 218.648438 C 179.613281 238.433594 163.578125 254.472656 143.792969 254.472656 C 124.007813 254.472656 107.96875 238.433594 107.96875 218.648438 C 107.96875 198.863281 124.007813 182.824219 143.792969 182.824219 C 163.578125 182.824219 179.613281 198.863281 179.613281 218.648438 Z M 179.613281 218.648438" fill="#fff" />
  <path d="M 1661.015625 2711.66875 L 1282.460938 2711.121875 L 1282.34375 2796.590625 C 1282.34375 2796.590625 1278.359375 2847.879687 1331.757813 2847.957812 L 1331.171875 3300.926562 C 1331.171875 3300.926562 1089.882813 3172.410937 1090.273438 2894.6375 L 1090.703125 2580.028125 L 1810.742188 2580.965625 Z M 1661.015625 2711.66875" transform="matrix(.1 0 0 -.1 0 354.12)" fill="#898989" stroke-width="4.457" stroke="#000" stroke-miterlimit="10" />
  <path d="M 443.933594 93.539063 L 112.652344 94.605469 C 112.652344 94.605469 119.191406 48.15625 90.332031 25.3125 C 90.34375 34.992188 90.402344 77.464844 90.402344 77.464844 L 40.011719 77.53125 C 30.769531 77.546875 24.046875 82.175781 23.746094 90.757813 C 23.746094 90.757813 19.253906 166.152344 24.601563 202.359375 C 37.957031 280.070313 43.746094 316.277344 74 324.996094 L 73.765625 153.339844 C 73.765625 153.339844 73.757813 148.945313 93.878906 148.917969 L 443.933594 147.824219" fill="#8c8c8c" />
  <g clip-path="url(#svg397190763430tikz_00005a)">
    <path d="M 4439.335938 2605.809375 L 1126.523438 2595.145312 C 1126.523438 2595.145312 1191.914063 3059.6375 903.320313 3288.075 C 903.4375 3191.278125 904.023438 2766.551562 904.023438 2766.551562 L 400.117188 2765.8875 C 307.695313 2765.73125 240.46875 2719.442187 237.460938 2633.621875 C 237.460938 2633.621875 192.539063 1879.676562 246.015625 1517.60625 C 379.570313 740.496875 437.460938 378.426562 740 291.239062 L 737.65625 2007.801562 C 737.65625 2007.801562 737.578125 2051.746875 938.789063 2052.020312 L 4439.335938 2062.957812" transform="matrix(.1 0 0 -.1 0 354.12)" fill="none" stroke-width="4.457" stroke="#000" stroke-miterlimit="10" />
  </g>
  <path d="M 443.933594 85.441406 L 107.152344 86.511719 C 107.152344 86.511719 113.691406 40.0625 84.832031 17.214844 C 84.84375 26.898438 84.902344 69.367188 84.902344 69.367188 L 34.511719 69.4375 C 25.269531 69.449219 18.546875 74.078125 18.246094 82.664063 C 18.246094 82.664063 13.75 158.054688 19.097656 194.261719 C 32.457031 271.972656 38.246094 308.179688 68.5 316.902344 L 68.261719 145.246094 C 68.261719 145.246094 68.257813 140.851563 88.378906 140.820313 L 443.933594 139.726563" fill="#ccc" />
  <g clip-path="url(#svg397190763430tikz_00005b)">
    <path d="M 4439.335938 2686.785937 L 1071.523438 2676.082812 C 1071.523438 2676.082812 1136.914063 3140.575 848.320313 3369.051562 C 848.4375 3272.215625 849.023438 2847.528125 849.023438 2847.528125 L 345.117188 2846.825 C 252.695313 2846.707812 185.46875 2800.41875 182.460938 2714.559375 C 182.460938 2714.559375 137.5 1960.653125 190.976563 1598.582812 C 324.570313 821.473437 382.460938 459.403125 685 372.176562 L 682.617188 2088.739062 C 682.617188 2088.739062 682.578125 2132.684375 883.789063 2132.996875 L 4439.335938 2143.934375" transform="matrix(.1 0 0 -.1 0 354.12)" fill="none" stroke-width="4.457" stroke="#000" stroke-miterlimit="10" />
  </g>
  <path d="M 684.960938 372.176562 L 739.960938 291.239062" transform="matrix(.1 0 0 -.1 0 354.12)" fill="none" stroke-width="4.457" stroke="#000" stroke-miterlimit="10" />
  <path d="M 84.832031 17.214844 C 84.832031 17.214844 94 29.660156 94.039063 59.058594 C 94.054688 68.929688 93.84375 69.355469 91.742188 69.359375 C 89.644531 69.363281 84.902344 69.367188 84.902344 69.367188 Z M 84.832031 17.214844" fill="#494949" />
  <g clip-path="url(#svg397190763430tikz_00005c)">
    <path d="M 848.320313 3369.051562 C 848.320313 3369.051562 940 3244.598437 940.390625 2950.614062 C 940.546875 2851.903125 938.4375 2847.645312 917.421875 2847.60625 C 896.445313 2847.567187 849.023438 2847.528125 849.023438 2847.528125 Z M 848.320313 3369.051562" transform="matrix(.1 0 0 -.1 0 354.12)" fill="none" stroke-width="4.457" stroke="#000" stroke-miterlimit="10" />
  </g>
  <path d="M 1331.171875 3300.926562 C 1331.171875 3300.926562 1244.414063 3214.0125 1244.609375 3108.817187 C 1244.726563 3003.621875 1244.882813 2876.98125 1244.882813 2876.98125 C 1244.882813 2876.98125 1245.898438 2847.840625 1331.757813 2847.957812 Z M 1331.171875 3300.926562" transform="matrix(.1 0 0 -.1 0 354.12)" fill="#494949" stroke-width="4.457" stroke="#000" stroke-miterlimit="10" />
  <path d="M 1614.335938 2556.35625 L 3486.015625 2556.35625 L 3486.015625 2714.79375 L 1614.335938 2714.79375 Z M 1614.335938 2556.35625" transform="matrix(.1 0 0 -.1 0 354.12)" fill="#fff" stroke-width="4.457" stroke="#000" stroke-miterlimit="10" />
  <path d="M 1614.335938 2714.79375 L 3486.015625 2714.79375 L 3486.015625 2873.270312 L 1614.335938 2873.270312 Z M 1614.335938 2714.79375" transform="matrix(.1 0 0 -.1 0 354.12)" fill="#ccc" stroke-width="4.457" stroke="#000" stroke-miterlimit="10" />
  <path d="M1181.289063 2136.903125L1181.289063 2391.160937M1664.257813 2136.903125L1664.257813 2391.160937M2147.226563 2136.903125L2147.226563 2391.160937M1422.773438 2136.903125L1422.773438 2371.825M1374.492188 2136.903125L1374.492188 2322.528125M1326.171875 2136.903125L1326.171875 2322.528125M1277.890625 2136.903125L1277.890625 2322.528125M1229.609375 2136.903125L1229.609375 2322.528125M1615.976563 2136.903125L1615.976563 2322.528125M1567.65625 2136.903125L1567.65625 2322.528125M1519.375 2136.903125L1519.375 2322.528125M1471.09375 2136.903125L1471.09375 2322.528125M1905.742188 2136.903125L1905.742188 2371.825M1857.460938 2136.903125L1857.460938 2322.528125M1809.140625 2136.903125L1809.140625 2322.528125M1760.859375 2136.903125L1760.859375 2322.528125M1712.578125 2136.903125L1712.578125 2322.528125M2098.945313 2136.903125L2098.945313 2322.528125M2050.625 2136.903125L2050.625 2322.528125M2002.34375 2136.903125L2002.34375 2322.528125M1954.0625 2136.903125L1954.0625 2322.528125M2630.195313 2136.903125L2630.195313 2391.160937M2388.710938 2136.903125L2388.710938 2371.825M2340.429688 2136.903125L2340.429688 2322.528125M2292.148438 2136.903125L2292.148438 2322.528125M2243.828125 2136.903125L2243.828125 2322.528125M2195.546875 2136.903125L2195.546875 2322.528125M2581.914063 2136.903125L2581.914063 2322.528125M2533.59375 2136.903125L2533.59375 2322.528125M2485.3125 2136.903125L2485.3125 2322.528125M2437.03125 2136.903125L2437.03125 2322.528125M3113.203125 2136.903125L3113.203125 2391.160937M2871.71875 2136.903125L2871.71875 2371.825M2823.398438 2136.903125L2823.398438 2322.528125M2775.117188 2136.903125L2775.117188 2322.528125M2726.796875 2136.903125L2726.796875 2322.528125M2678.515625 2136.903125L2678.515625 2322.528125M3064.882813 2136.903125L3064.882813 2322.528125M3016.601563 2136.903125L3016.601563 2322.528125M2968.28125 2136.903125L2968.28125 2322.528125M2920 2136.903125L2920 2322.528125M3596.171875 2136.903125L3596.171875 2391.160937M3354.6875 2136.903125L3354.6875 2371.825M3306.367188 2136.903125L3306.367188 2322.528125M3258.085938 2136.903125L3258.085938 2322.528125M3209.804688 2136.903125L3209.804688 2322.528125M3161.484375 2136.903125L3161.484375 2322.528125M3547.851563 2136.903125L3547.851563 2322.528125M3499.570313 2136.903125L3499.570313 2322.528125M3451.289063 2136.903125L3451.289063 2322.528125M3402.96875 2136.903125L3402.96875 2322.528125M4079.140625 2136.903125L4079.140625 2391.160937M3837.65625 2136.903125L3837.65625 2371.825M3789.375 2136.903125L3789.375 2322.528125M3741.054688 2136.903125L3741.054688 2322.528125M3692.773438 2136.903125L3692.773438 2322.528125M3644.453125 2136.903125L3644.453125 2322.528125M4030.859375 2136.903125L4030.859375 2322.528125M3982.539063 2136.903125L3982.539063 2322.528125M3934.257813 2136.903125L3934.257813 2322.528125M3885.9375 2136.903125L3885.9375 2322.528125M4321.992188 2136.903125L4321.992188 2371.825M4273.671875 2136.903125L4273.671875 2322.528125M4225.390625 2136.903125L4225.390625 2322.528125M4177.109375 2136.903125L4177.109375 2322.528125M4128.789063 2136.903125L4128.789063 2322.528125M4418.59375 2136.903125L4418.59375 2322.528125M4370.273438 2136.903125L4370.273438 2322.528125" transform="matrix(.1 0 0 -.1 0 354.12)" fill="none" stroke-width="4.457" stroke="#000" stroke-miterlimit="10" />
  <path d="M 2143.046875 2052.410937 L 4321.835938 2055.223437 L 4321.992188 1931.434375 L 2143.203125 1928.621875 Z M 2143.046875 2052.410937" transform="matrix(.1 0 0 -.1 0 354.12)" fill="#8c8c8c" stroke-width="4.457" stroke="#000" stroke-miterlimit="10" />
  <path d="M 214.304688 148.875 L 214.296875 129.460938 L 443.707031 129.460938 L 443.707031 148.574219 Z M 214.304688 148.875" fill="#fff" />
  <g clip-path="url(#svg397190763430tikz_00005d)">
    <path d="M 2143.046875 2052.45 L 2142.96875 2246.590625 L 4437.070313 2246.590625 L 4437.070313 2055.457812 Z M 2143.046875 2052.45" transform="matrix(.1 0 0 -.1 0 354.12)" fill="none" stroke-width="4.457" stroke="#000" stroke-miterlimit="10" />
  </g>
  <path d="M 2158.164063 1900.535937 L 2142.734375 322.840625 L 2143.085938 266.004687 C 2143.085938 266.004687 2246.210938 250.223437 2308.710938 431.864062 C 2371.171875 613.504687 2716.40625 1607.528125 2716.40625 1607.528125 C 2716.40625 1607.528125 2730.820313 1663.660937 2825.234375 1663.778125 C 2940.78125 1663.934375 4322.304688 1665.848437 4322.304688 1665.848437 L 4321.953125 1936.707812 Z M 2158.164063 1900.535937" transform="matrix(.1 0 0 -.1 0 354.12)" fill="#8c8c8c" stroke-width="4.457" stroke="#000" stroke-miterlimit="10" />
  <path d="M 2142.96875 1957.371875 L 2142.734375 322.840625 C 2142.734375 322.840625 2231.015625 307.059375 2293.515625 488.660937 C 2355.976563 670.301562 2701.210938 1664.364062 2701.210938 1664.364062 C 2701.210938 1664.364062 2715.625 1720.496875 2810.078125 1720.614062 C 2925.585938 1720.770312 4322.226563 1722.684375 4322.226563 1722.684375 L 4321.875 1993.54375 Z M 2142.96875 1957.371875" transform="matrix(.1 0 0 -.1 0 354.12)" fill="#ccc" stroke-width="4.457" stroke="#000" stroke-miterlimit="10" />
  <path d="M 4299.375 1736.121875 L 3187.617188 1829.559375 C 3187.617188 1829.559375 3114.726563 1754.364062 3191.445313 1615.575 C 3268.125 1476.825 3463.515625 1615.965625 3571.210938 1616.121875 C 3678.90625 1616.278125 3718.671875 1536.942187 3832.109375 1488.934375 C 3945.546875 1440.926562 4115.585938 1438.309375 4251.523438 1489.520312 C 4311.015625 1509.442187 4299.375 1736.121875 4299.375 1736.121875 Z M 4299.375 1736.121875" transform="matrix(.1 0 0 -.1 0 354.12)" fill="#ccc" stroke-width="4.457" stroke="#000" stroke-miterlimit="10" />
  <path d="M 4299.296875 1820.575 L 3247.773438 1861.629687 C 3247.773438 1861.629687 3114.609375 1838.778125 3191.328125 1699.989062 C 3268.046875 1561.239062 3463.398438 1700.379687 3571.09375 1700.535937 C 3678.789063 1700.653125 3718.554688 1621.395312 3831.992188 1573.348437 C 3945.429688 1525.340625 4115.46875 1522.723437 4251.445313 1573.934375 C 4310.9375 1593.817187 4299.296875 1820.575 4299.296875 1820.575 Z M 4299.296875 1820.575" transform="matrix(.1 0 0 -.1 0 354.12)" fill="#fff" stroke-width="4.457" stroke="#000" stroke-miterlimit="10" />
  <path d="M 3364.296875 1755.223437 C 3364.257813 1775.770312 3337.890625 1792.371875 3305.429688 1792.332812 C 3272.929688 1792.254687 3246.601563 1775.614062 3246.640625 1755.10625 C 3246.679688 1734.559375 3273.046875 1717.957812 3305.546875 1717.996875 C 3338.007813 1718.075 3364.335938 1734.715625 3364.296875 1755.223437 Z M 3364.296875 1755.223437" transform="matrix(.1 0 0 -.1 0 354.12)" fill="#fff" stroke-width="4.457" stroke="#000" stroke-miterlimit="10" />
  <path d="M3447.265625 2245.184375L3447.265625 2156.473437M2522.109375 2245.184375L2522.109375 2156.473437M2984.6875 2245.184375L2984.6875 2178.075M2799.648438 2245.184375L2799.648438 2199.676562M2892.1875 2245.184375L2892.1875 2199.676562M2614.609375 2245.184375L2614.609375 2199.676562M2707.148438 2245.184375L2707.148438 2199.676562M3262.226563 2245.184375L3262.226563 2199.676562M3354.726563 2245.184375L3354.726563 2199.676562M3077.226563 2245.184375L3077.226563 2199.676562M3169.726563 2245.184375L3169.726563 2199.676562" transform="matrix(.1 0 0 -.1 0 354.12)" fill="none" stroke-width="4.457" stroke="#000" stroke-miterlimit="10" />
  <path d="M99.25 109.46875C98.75 110.113281 98.371094 110.394531 97.644531 110.394531 96.496094 110.394531 95.949219 109.4375 95.949219 108.074219 95.949219 106.792969 96.496094 106.121094 97.398438 106.121094 98.359375 106.121094 97.992188 107.394531 98.816406 107.394531 99.128906 107.394531 99.285156 107.214844 99.285156 106.890625 99.285156 106.246094 98.636719 105.710938 97.589844 105.710938 95.984375 105.710938 95.070313 106.847656 95.070313 108.597656 95.070313 110.148438 95.90625 111.230469 97.300781 111.230469 98.492188 111.230469 99.039063 110.527344 99.464844 109.625L99.25 109.46875M101.765625 107.136719C102.089844 106.835938 102.578125 106.421875 103.15625 106.421875 103.671875 106.421875 104.050781 106.667969 104.050781 107.617188L104.050781 109.824219C104.050781 110.605469 103.984375 110.796875 103.191406 110.796875L103.191406 111.121094 105.835938 111.121094 105.835938 110.796875C105.03125 110.796875 104.976563 110.59375 104.976563 109.824219L104.976563 107.113281C105.34375 106.804688 105.804688 106.421875 106.257813 106.421875 106.785156 106.421875 107.21875 106.667969 107.21875 107.683594L107.21875 109.824219C107.21875 110.507813 107.1875 110.796875 106.425781 110.796875L106.425781 111.121094 108.949219 111.121094 108.949219 110.796875C108.179688 110.796875 108.144531 110.527344 108.144531 109.824219L108.144531 107.550781C108.144531 106.199219 107.578125 105.710938 106.707031 105.710938 106.117188 105.710938 105.546875 106.03125 104.933594 106.636719L104.886719 106.636719C104.664063 106.101563 104.285156 105.710938 103.648438 105.710938 102.890625 105.710938 102.378906 106.121094 101.773438 106.648438L101.730469 106.648438 101.730469 105.742188 101.464844 105.742188 100.070313 106.066406 100.070313 106.390625C100.070313 106.390625 100.203125 106.367188 100.367188 106.367188 100.679688 106.367188 100.839844 106.46875 100.839844 106.871094L100.839844 109.992188C100.839844 110.660156 100.757813 110.796875 100.054688 110.796875L100.054688 111.121094 102.601563 111.121094 102.601563 110.796875C101.910156 110.796875 101.765625 110.660156 101.765625 110.035156L101.765625 107.136719M254.648438 143.871094C254.648438 141.824219 253.753906 140.640625 252.472656 140.640625 251.03125 140.640625 250.269531 141.953125 250.269531 143.84375 250.269531 145.601563 250.855469 147.128906 252.453125 147.128906 254.011719 147.128906 254.648438 145.570313 254.648438 143.871094zM253.6875 143.929688C253.6875 145.835938 253.238281 146.773438 252.453125 146.773438 251.660156 146.773438 251.222656 145.816406 251.222656 143.890625 251.222656 141.925781 251.660156 140.980469 252.445313 140.980469 253.257813 140.980469 253.6875 141.914063 253.6875 143.929688M299.941406 141.46875L300.101563 140.660156 297.378906 140.660156 296.765625 143.253906 296.882813 143.402344C297.023438 143.402344 297.070313 143.402344 297.328125 143.421875 298.699219 143.492188 299.476563 143.898438 299.476563 145.140625 299.476563 146.175781 298.851563 146.554688 298.144531 146.554688 297.507813 146.554688 297.179688 146.066406 296.78125 146.066406 296.535156 146.066406 296.386719 146.265625 296.386719 146.492188 296.386719 146.859375 296.765625 147.050781 297.527344 147.050781 299.109375 147.050781 300.199219 146.273438 300.199219 144.746094 300.199219 143.1875 298.976563 142.71875 297.804688 142.628906L297.339844 142.597656 297.609375 141.46875 299.941406 141.46875M344.132813 147.019531L344.132813 146.742188C343.21875 146.742188 342.851563 146.5625 342.851563 146.074219L342.851563 140.671875 342.5625 140.671875 340.632813 141.21875 340.632813 141.546875C340.945313 141.445313 341.449219 141.386719 341.648438 141.386719 341.898438 141.386719 341.976563 141.527344 341.976563 141.875L341.976563 146.074219C341.976563 146.574219 341.628906 146.742188 340.695313 146.742188L340.695313 147.019531 344.132813 147.019531M349.546875 143.871094C349.546875 141.824219 348.65625 140.640625 347.371094 140.640625 345.933594 140.640625 345.167969 141.953125 345.167969 143.84375 345.167969 145.601563 345.753906 147.128906 347.351563 147.128906 348.914063 147.128906 349.546875 145.570313 349.546875 143.871094zM348.585938 143.929688C348.585938 145.835938 348.140625 146.773438 347.351563 146.773438 346.558594 146.773438 346.121094 145.816406 346.121094 143.890625 346.121094 141.925781 346.558594 140.980469 347.34375 140.980469 348.15625 140.980469 348.585938 141.914063 348.585938 143.929688M120.621094 108.484375C120.621094 106.1875 119.617188 104.855469 118.179688 104.855469 116.5625 104.855469 115.703125 106.332031 115.703125 108.449219 115.703125 110.425781 116.359375 112.144531 118.15625 112.144531 119.90625 112.144531 120.621094 110.390625 120.621094 108.484375zM119.539063 108.550781C119.539063 110.691406 119.039063 111.738281 118.15625 111.738281 117.261719 111.738281 116.773438 110.671875 116.773438 108.507813 116.773438 106.296875 117.261719 105.238281 118.144531 105.238281 119.058594 105.238281 119.539063 106.285156 119.539063 108.550781M168.953125 112.019531L168.953125 111.707031C167.925781 111.707031 167.515625 111.507813 167.515625 110.960938L167.515625 104.890625 167.191406 104.890625 165.023438 105.503906 165.023438 105.871094C165.371094 105.761719 165.941406 105.695313 166.164063 105.695313 166.441406 105.695313 166.53125 105.851563 166.53125 106.238281L166.53125 110.960938C166.53125 111.519531 166.140625 111.707031 165.09375 111.707031L165.09375 112.019531 168.953125 112.019531M218.078125 110.335938L217.753906 110.335938C217.496094 111.003906 217.351563 111.238281 216.757813 111.238281L215.210938 111.238281 214.429688 111.273438 214.429688 111.21875 215.902344 109.820313C217.085938 108.628906 217.71875 107.859375 217.71875 106.863281 217.71875 105.691406 216.839844 104.9375 215.578125 104.9375 214.496094 104.9375 213.738281 105.5625 213.390625 106.640625L213.660156 106.753906C214.070313 105.917969 214.5625 105.660156 215.289063 105.660156 216.148438 105.660156 216.679688 106.195313 216.679688 107.03125 216.679688 108.203125 216.121094 108.90625 215.019531 110.046875L213.324219 111.738281 213.324219 112.121094 217.71875 112.121094 218.078125 110.335938M260.757813 106.464844C261.140625 105.871094 261.550781 105.5625 262.21875 105.5625 262.914063 105.5625 263.359375 105.941406 263.359375 106.597656 263.359375 107.5 262.566406 108.113281 261.808594 108.113281L261.597656 108.113281 261.597656 108.539063 261.820313 108.539063C262.890625 108.539063 263.839844 109.199219 263.839844 110.191406 263.839844 111.285156 263.15625 111.605469 262.453125 111.605469 262.1875 111.605469 262.03125 111.5625 261.550781 111.316406 261.160156 111.117188 261.070313 111.0625 260.894531 111.0625 260.601563 111.0625 260.457031 111.316406 260.457031 111.550781 260.457031 111.84375 260.703125 112.164063 261.707031 112.164063 263.335938 112.164063 264.753906 111.382813 264.753906 109.855469 264.753906 108.863281 264.007813 108.273438 263.113281 107.992188L263.113281 107.960938C263.816406 107.511719 264.320313 107.101563 264.320313 106.332031 264.320313 105.480469 263.660156 104.835938 262.523438 104.835938 261.609375 104.835938 260.914063 105.347656 260.503906 106.316406L260.757813 106.464844M313.867188 110.355469L313.867188 109.585938 312.726563 109.585938 312.726563 104.925781 312.046875 104.925781 308.644531 109.652344 308.644531 110.355469 311.734375 110.355469 311.734375 112.121094 312.726563 112.121094 312.726563 110.355469zM311.734375 109.585938L309.257813 109.585938 309.257813 109.542969 311.691406 106.140625 311.734375 106.140625 311.734375 109.585938M361.953125 105.796875L362.132813 104.890625 359.074219 104.890625 358.382813 107.804688 358.515625 107.96875C358.671875 107.96875 358.726563 107.96875 359.019531 107.992188 360.558594 108.070313 361.429688 108.527344 361.429688 109.921875 361.429688 111.082031 360.726563 111.507813 359.933594 111.507813 359.21875 111.507813 358.851563 110.960938 358.40625 110.960938 358.125 110.960938 357.957031 111.183594 357.957031 111.441406 357.957031 111.851563 358.382813 112.066406 359.242188 112.066406 361.015625 112.066406 362.242188 111.195313 362.242188 109.476563 362.242188 107.726563 360.871094 107.199219 359.554688 107.101563L359.03125 107.066406 359.328125 105.796875 361.953125 105.796875M410.628906 104.8125C408.230469 104.914063 406.503906 106.464844 406.503906 109.152344 406.503906 110.792969 407.226563 112.152344 408.890625 112.152344 410.296875 112.152344 411.097656 111.273438 411.097656 109.757813 411.097656 108.292969 410.304688 107.410156 409.089844 107.410156 408.511719 107.410156 408.097656 107.65625 407.640625 108.105469L407.5625 108.09375C407.839844 106.464844 409.089844 105.371094 410.652344 105.136719zM410.128906 109.84375C410.128906 111.261719 409.679688 111.765625 408.933594 111.765625 407.964844 111.765625 407.507813 110.769531 407.507813 109.386719 407.507813 108.417969 408.109375 108.058594 408.757813 108.058594 409.679688 108.058594 410.128906 108.839844 410.128906 109.84375" />
</svg>